<!DOCTYPE svg PUBLIC "-//W3C//DTD SVG 1.1//EN" "http://www.w3.org/Graphics/SVG/1.1/DTD/svg11.dtd">

<!-- Created by: Easy Logo, www.easylogo.dev, Transformed by: Easy Logo Editor -->
<svg width="303.3999888102214px" height="100px" viewBox="0 0 72.81599731445313 24" fill="none" xmlns="http://www.w3.org/2000/svg">
      <g id="easylogo_bgCarrier" stroke-width="0"/>
      <g id="easylogo_tracerCarrier" stroke-linecap="round" stroke-linejoin="round" transform="translate(0.8399999999999999,0.8399999999999999), scale(0.93)" stroke="#8dd0ff" stroke-width="0.336"> <path d="M3 3L21 21M17 10V8C17 5.23858 14.7614 3 12 3C11.0283 3 10.1213 3.27719 9.35386 3.75681M7.08383 7.08338C7.02878 7.38053 7 7.6869 7 8V10.0288M19.5614 19.5618C19.273 20.0348 18.8583 20.4201 18.362 20.673C17.7202 21 16.8802 21 15.2 21H8.8C7.11984 21 6.27976 21 5.63803 20.673C5.07354 20.3854 4.6146 19.9265 4.32698 19.362C4 18.7202 4 17.8802 4 16.2V14.8C4 13.1198 4 12.2798 4.32698 11.638C4.6146 11.0735 5.07354 10.6146 5.63803 10.327C5.99429 10.1455 6.41168 10.0647 7 10.0288M19.9998 14.4023C19.9978 12.9831 19.9731 12.227 19.673 11.638C19.3854 11.0735 18.9265 10.6146 18.362 10.327C17.773 10.0269 17.0169 10.0022 15.5977 10.0002M10 10H8.8C8.05259 10 7.47142 10 7 10.0288" stroke="#8dd0ff" stroke-width="2" stroke-linecap="round" stroke-linejoin="round"/> </g>
      <g id="easylogo_iconAttributionCarrier" transform="matrix(1, 0, 0, 1, 0, 0)rotate(0)">

<g id="easylogo_iconCarrier" transform="translate(0.8399999999999999,0.8399999999999999), scale(0.93)"> <path d="M3 3L21 21M17 10V8C17 5.23858 14.7614 3 12 3C11.0283 3 10.1213 3.27719 9.35386 3.75681M7.08383 7.08338C7.02878 7.38053 7 7.6869 7 8V10.0288M19.5614 19.5618C19.273 20.0348 18.8583 20.4201 18.362 20.673C17.7202 21 16.8802 21 15.2 21H8.8C7.11984 21 6.27976 21 5.63803 20.673C5.07354 20.3854 4.6146 19.9265 4.32698 19.362C4 18.7202 4 17.8802 4 16.2V14.8C4 13.1198 4 12.2798 4.32698 11.638C4.6146 11.0735 5.07354 10.6146 5.63803 10.327C5.99429 10.1455 6.41168 10.0647 7 10.0288M19.9998 14.4023C19.9978 12.9831 19.9731 12.227 19.673 11.638C19.3854 11.0735 18.9265 10.6146 18.362 10.327C17.773 10.0269 17.0169 10.0022 15.5977 10.0002M10 10H8.8C8.05259 10 7.47142 10 7 10.0288" stroke="#8dd0ff" stroke-width="2" stroke-linecap="round" stroke-linejoin="round"/> </g>

</g>

      <g id="easylogo_text">
        <g id="easylogo_textInput" fill="#8dd0ff" transform="translate(26.400000000000002 19.200000000000003)">

<path d="M3.01 2.57Q2.13 3.84 0.65 3.84Q-0.25 3.84 -0.77 3.59Q-1.32 3.36 -1.32 3Q-1.32 2.65 -1.1 2.31Q-0.88 1.98 -0.63 1.98Q0 1.98 0.35 2.5Q0.69 3.03 1.23 3.03Q2.5 3.03 2.5 0L2.5 -10.58Q2.5 -11.23 2.22 -11.52Q1.94 -11.81 1.27 -11.94Q0.6 -12.06 0.6 -12.33Q0.6 -12.54 1.15 -12.54L3.4 -12.48L5.2 -12.54Q5.76 -12.54 5.76 -12.33Q5.76 -12.06 5.11 -11.94Q4.45 -11.81 4.24 -11.54Q4.03 -11.27 4.03 -10.58L4.03 -2.73Q4.03 0.15 3.71 1.19Q3.59 1.57 3.5 1.78Q3.42 1.98 3.31 2.13Q3.21 2.28 3.01 2.57ZM9.27 -0.04L6.78 0.1Q6.22 0.1 6.22 -0.13Q6.22 -0.35 6.91 -0.48Q7.6 -0.6 7.93 -0.91Q8.26 -1.23 8.26 -1.92L8.26 -10.02Q8.26 -10.94 8.03 -11.39Q7.8 -11.83 7.12 -11.94Q6.45 -12.06 6.45 -12.33Q6.45 -12.54 7.01 -12.54L8.89 -12.52L11.02 -12.63Q12.48 -12.63 13.58 -12.22Q14.69 -11.81 15.32 -11.05Q15.96 -10.29 15.96 -9.25Q15.96 -8.01 15.45 -7.01Q14.94 -6.01 13.97 -5.44Q13 -4.88 11.58 -4.88Q11.19 -4.88 10.96 -4.99Q10.71 -5.11 10.71 -5.24Q10.71 -5.32 10.82 -5.39Q10.92 -5.45 11.02 -5.45L11.31 -5.41L11.9 -5.36Q14.23 -5.36 14.23 -8.79Q14.23 -10.48 13.36 -11.29Q12.5 -12.1 11.02 -12.1Q9.79 -12.1 9.79 -11.29L9.79 -2.13Q9.79 -0.69 11.08 -0.46Q11.71 -0.35 11.71 -0.13Q11.71 0.1 11.16 0.1Q10.89 0.1 10.62 0.08Q10.35 0.06 10.1 0.02Q9.62 -0.04 9.27 -0.04ZM20.7 -0.48Q20.43 -0.23 19.9 0.02Q19.37 0.27 18.74 0.27Q18.32 0.27 17.92 0.05Q17.53 -0.17 17.28 -0.53Q17.03 -0.88 17.03 -1.25Q17.03 -2.4 18.43 -2.98L20.39 -3.78Q20.76 -3.94 20.83 -4.05Q20.91 -4.17 20.93 -4.55L20.97 -5.74L20.97 -5.78Q20.97 -6.28 20.65 -6.64Q20.33 -7.01 19.93 -7.01Q19.51 -7.01 19.14 -6.81Q18.78 -6.6 18.68 -6.43Q18.59 -6.24 18.59 -6.03L18.6 -5.76Q18.6 -5.64 18.34 -5.49Q18.07 -5.34 17.76 -5.21Q17.45 -5.09 17.32 -5.09Q17.13 -5.09 17.13 -5.26Q17.13 -5.7 17.43 -6.11Q17.74 -6.51 18.23 -6.87Q18.72 -7.24 19.26 -7.53Q20.04 -7.95 20.76 -7.95Q21.43 -7.95 21.89 -7.45Q22.35 -6.95 22.33 -6.24L22.23 -2.09L22.23 -1.98Q22.23 -0.61 22.92 -0.61Q23.39 -0.61 23.69 -0.88Q23.73 -0.92 23.79 -0.92Q23.87 -0.92 23.93 -0.86Q24 -0.81 24 -0.71L24 -0.69Q23.92 -0.54 23.67 -0.31Q23.42 -0.08 23.1 0.1Q22.77 0.27 22.46 0.27Q21.98 0.27 21.67 0.02Q21.35 -0.23 21.22 -0.48Q21.08 -0.73 21.04 -0.73Q20.95 -0.73 20.7 -0.48ZM18.57 -1.67Q18.57 -1.17 18.87 -0.89Q19.18 -0.61 19.62 -0.61Q20.06 -0.61 20.47 -0.96Q20.87 -1.31 20.89 -1.9L20.93 -2.84L20.93 -2.94Q20.93 -3.24 20.76 -3.24Q20.64 -3.24 20.49 -3.19Q18.57 -2.53 18.57 -1.67ZM29.64 -2.04Q29.64 0.27 26.88 0.27Q26.17 0.27 25.56 0.03Q24.94 -0.21 24.84 -0.42Q24.61 -0.9 24.6 -1.59Q24.6 -1.77 24.9 -1.77Q25.19 -1.77 25.21 -1.63Q25.29 -1.31 25.56 -0.98Q25.84 -0.65 26.24 -0.45Q26.63 -0.25 27.05 -0.25Q27.67 -0.25 28 -0.61Q28.34 -0.98 28.34 -1.52Q28.34 -2.05 27.99 -2.43Q27.65 -2.8 26.84 -3.38Q26.02 -3.96 25.53 -4.5Q25.04 -5.05 25.04 -5.84Q25.04 -6.37 25.32 -6.85Q25.61 -7.33 26.15 -7.64Q26.69 -7.95 27.46 -7.95Q28.61 -7.95 29.05 -7.51Q29.38 -7.08 29.38 -6.01Q29.38 -5.93 29.24 -5.93Q29.11 -5.93 28.86 -6.08Q28.61 -6.22 28.61 -6.34Q28.59 -6.76 28.22 -7.1Q27.86 -7.45 27.36 -7.45Q26.84 -7.45 26.52 -7.1Q26.19 -6.76 26.19 -6.3Q26.19 -5.84 26.52 -5.45Q26.84 -5.07 27.09 -4.92Q27.21 -4.84 27.39 -4.71Q27.57 -4.59 27.82 -4.44Q28.15 -4.24 28.37 -4.09Q28.59 -3.94 28.8 -3.73Q29.01 -3.53 29.26 -3.17Q29.64 -2.61 29.64 -2.04ZM35.85 -2.04Q35.85 0.27 33.08 0.27Q32.37 0.27 31.76 0.03Q31.14 -0.21 31.05 -0.42Q30.82 -0.9 30.8 -1.59Q30.8 -1.77 31.1 -1.77Q31.39 -1.77 31.41 -1.63Q31.49 -1.31 31.77 -0.98Q32.04 -0.65 32.44 -0.45Q32.83 -0.25 33.25 -0.25Q33.87 -0.25 34.2 -0.61Q34.54 -0.98 34.54 -1.52Q34.54 -2.05 34.2 -2.43Q33.85 -2.8 33.04 -3.38Q32.22 -3.96 31.73 -4.5Q31.24 -5.05 31.24 -5.84Q31.24 -6.37 31.53 -6.85Q31.81 -7.33 32.35 -7.64Q32.89 -7.95 33.66 -7.95Q34.81 -7.95 35.25 -7.51Q35.58 -7.08 35.58 -6.01Q35.58 -5.93 35.44 -5.93Q35.31 -5.93 35.06 -6.08Q34.81 -6.22 34.81 -6.34Q34.79 -6.76 34.43 -7.1Q34.06 -7.45 33.56 -7.45Q33.04 -7.45 32.72 -7.1Q32.39 -6.76 32.39 -6.3Q32.39 -5.84 32.72 -5.45Q33.04 -5.07 33.29 -4.92Q33.41 -4.84 33.59 -4.71Q33.77 -4.59 34.02 -4.44Q34.35 -4.24 34.57 -4.09Q34.79 -3.94 35 -3.73Q35.21 -3.53 35.46 -3.17Q35.85 -2.61 35.85 -2.04Z"/>

</g>
      </g>
      </svg>